<mxfile host="Electron" modified="2023-04-21T06:33:12.699Z" agent="Mozilla/5.0 (Windows NT 10.0; Win64; x64) AppleWebKit/537.36 (KHTML, like Gecko) draw.io/21.1.2 Chrome/106.0.5249.199 Electron/21.4.3 Safari/537.36" etag="DK7C5WVgG9jtW9lypqwf" version="21.1.2" type="device">
  <diagram name="Seite-1" id="v2XPCRlNch2mQ3Doh007">
    <mxGraphModel dx="1434" dy="844" grid="1" gridSize="10" guides="1" tooltips="1" connect="1" arrows="1" fold="1" page="1" pageScale="1" pageWidth="1169" pageHeight="827" math="0" shadow="0">
      <root>
        <mxCell id="0" />
        <mxCell id="1" parent="0" />
        <mxCell id="tO6nWoOnNTMJzA9G3iTY-1" value=".NET Assembly (*.dll) - &lt;b&gt;Assembly A.dll&lt;/b&gt;" style="shape=note;whiteSpace=wrap;html=1;backgroundOutline=1;darkOpacity=0.05;verticalAlign=top;" vertex="1" parent="1">
          <mxGeometry x="90" y="70" width="470" height="350" as="geometry" />
        </mxCell>
        <mxCell id="tO6nWoOnNTMJzA9G3iTY-3" value="Introduction.Classes" style="rounded=0;whiteSpace=wrap;html=1;verticalAlign=top;" vertex="1" parent="1">
          <mxGeometry x="120" y="140" width="400" height="120" as="geometry" />
        </mxCell>
        <mxCell id="tO6nWoOnNTMJzA9G3iTY-4" value="A.B.C" style="rounded=0;whiteSpace=wrap;html=1;verticalAlign=top;" vertex="1" parent="1">
          <mxGeometry x="120" y="275" width="400" height="120" as="geometry" />
        </mxCell>
        <mxCell id="tO6nWoOnNTMJzA9G3iTY-6" value="UserAccount" style="rounded=0;whiteSpace=wrap;html=1;fontStyle=1" vertex="1" parent="1">
          <mxGeometry x="150" y="180" width="120" height="60" as="geometry" />
        </mxCell>
        <mxCell id="tO6nWoOnNTMJzA9G3iTY-7" value="SomeClass" style="rounded=0;whiteSpace=wrap;html=1;fontStyle=1" vertex="1" parent="1">
          <mxGeometry x="150" y="320" width="120" height="60" as="geometry" />
        </mxCell>
        <mxCell id="tO6nWoOnNTMJzA9G3iTY-8" value="Enum" style="rounded=0;whiteSpace=wrap;html=1;fontStyle=1" vertex="1" parent="1">
          <mxGeometry x="280" y="320" width="120" height="60" as="geometry" />
        </mxCell>
        <mxCell id="tO6nWoOnNTMJzA9G3iTY-9" value="&lt;b&gt;B.dll&lt;/b&gt;" style="shape=note;whiteSpace=wrap;html=1;backgroundOutline=1;darkOpacity=0.05;verticalAlign=top;" vertex="1" parent="1">
          <mxGeometry x="670" y="70" width="470" height="220" as="geometry" />
        </mxCell>
        <mxCell id="tO6nWoOnNTMJzA9G3iTY-10" value="Some.Other.Namespace" style="rounded=0;whiteSpace=wrap;html=1;verticalAlign=top;" vertex="1" parent="1">
          <mxGeometry x="700" y="140" width="400" height="120" as="geometry" />
        </mxCell>
        <mxCell id="tO6nWoOnNTMJzA9G3iTY-13" value="DependentClass" style="rounded=0;whiteSpace=wrap;html=1;fontStyle=1" vertex="1" parent="1">
          <mxGeometry x="730" y="180" width="120" height="60" as="geometry" />
        </mxCell>
        <mxCell id="tO6nWoOnNTMJzA9G3iTY-16" value="" style="endArrow=classic;html=1;rounded=0;exitX=0;exitY=0.5;exitDx=0;exitDy=0;" edge="1" parent="1" source="tO6nWoOnNTMJzA9G3iTY-13" target="tO6nWoOnNTMJzA9G3iTY-6">
          <mxGeometry width="50" height="50" relative="1" as="geometry">
            <mxPoint x="590" y="290" as="sourcePoint" />
            <mxPoint x="640" y="240" as="targetPoint" />
          </mxGeometry>
        </mxCell>
      </root>
    </mxGraphModel>
  </diagram>
</mxfile>
